<svg xmlns="http://www.w3.org/2000/svg" fill="none" stroke="currentColor" stroke-width="1.5"
    class="w-6 h-6" viewBox="0 0 600 360">
    <style>
        path {
            stroke="rgba(90,90,90,.5)"
        }
        @media (prefers-color-scheme: dark) {
            path { stroke="rgba(255,255,255,.5)" }
        }
    </style>
    <path  stroke-linecap="round" stroke-linejoin="round"
        stroke-width="1"
        d="m152.436 197.278 70.147-70.146c11.946-11.947 31.281-11.947 43.227 0l70.147 70.146m-20.396-20.395 19.138-19.138c11.947-11.947 31.321-11.947 43.267 0l39.534 39.533m-244.668 50.969h224.272c11.279 0 20.396-9.117 20.396-20.395V64.727c0-11.24-9.117-20.396-20.396-20.396H172.832c-11.279 0-20.396 9.156-20.396 20.396v163.125c0 11.278 9.117 20.395 20.396 20.395ZM315.561 95.3h.118v.118h-.118V95.3Zm5.109 0c0 3.93-4.244 6.406-7.663 4.441-1.572-.904-2.554-2.594-2.554-4.441 0-3.89 4.244-6.366 7.663-4.401 1.572.904 2.554 2.594 2.554 4.401Z" />
</svg>