<svg xmlns="http://www.w3.org/2000/svg" fill="none" stroke="currentColor" stroke-width="1.5"
    class="w-6 h-6" viewBox="0 0 600 360">
    <style>
        path {
        stroke="rgba(90,90,90,.5)"
        }
        @media (prefers-color-scheme: dark) {
        path { stroke="rgba(255,255,255,.5)" }
        }
    </style>

    <path stroke-linecap="round" stroke-linejoin="round" stroke-width="1"
        d="M 161.436 223.278 L 231.583 153.132 C 243.529 141.185 262.864 141.185 274.81 153.132 L 344.957 223.278 M 324.561 202.883 L 343.699 183.745 C 355.646 171.798 375.02 171.798 386.966 183.745 L 426.5 223.278 M 181.832 274.247 L 406.104 274.247 C 417.383 274.247 426.5 265.13 426.5 253.852 L 426.5 90.727 C 426.5 79.487 417.383 70.331 406.104 70.331 L 181.832 70.331 C 170.553 70.331 161.436 79.487 161.436 90.727 L 161.436 253.852 C 161.436 265.13 170.553 274.247 181.832 274.247 Z M 324.561 121.3 L 324.679 121.3 L 324.679 121.418 L 324.561 121.418 L 324.561 121.3 Z M 329.67 121.3 C 329.67 125.23 325.426 127.706 322.007 125.741 C 320.435 124.837 319.453 123.147 319.453 121.3 C 319.453 117.41 323.697 114.934 327.116 116.899 C 328.688 117.803 329.67 119.493 329.67 121.3 Z"></path>
</svg>