<svg xmlns="http://www.w3.org/2000/svg" viewBox="0 0 700 700">
  <style>
    path {
    stroke: black;

    }
    @media (prefers-color-scheme: dark) {
    path { stroke: white; }
    }
</style>
  <path
    stroke-miterlimit="10"
    d="m272 528-140 50 50-140 318-318 90 90-318 318Z"
    style="stroke-width:20px"
  />
  <path

    stroke-miterlimit="10"
    d="m590 210-90-90a64 64 0 1 1 90 90ZM182 438l90 90M227 393l90 90M272 348l90 90M317 303l90 90M362 258l90 90M407 213l90 90M452 168l90 90M500 120l-45-45-138 138"
    style="stroke-width:20px"
  />
  <path
    d="m97 370 26 67H70l27-67Z"
    style="fill:#000"
    transform="rotate(-136 159 462)"
  />
</svg>
  