<?xml version="1.0"?>
<svg xmlns="http://www.w3.org/2000/svg" width="253" height="88" viewBox="0 0 253 88" fill="none">
<path fill-rule="evenodd" clip-rule="evenodd" d="M52.9387 49.6944C48.6875 47.7059 45.783 46.9287 45.783 46.9287C46.0153 46.2834 46.531 44.6972 46.9632 43.3681C47.1508 42.7909 47.3228 42.262 47.4489 41.8799C48.7815 42.1323 50.1975 42.3006 51.6135 42.3848C56.8608 42.8055 60.8588 41.7957 63.4409 39.4396C65.9396 37.0835 66.5227 33.8859 66.5227 31.6981C66.5227 26.3968 62.2748 22.0211 56.9441 22.0211C55.3495 22.0211 53.1658 22.3799 50.7896 24.2713C48.5377 26.0637 47.0261 30.7609 45.5316 35.4049C45.4491 35.6613 45.3666 35.9175 45.2841 36.173C42.9049 35.532 40.6759 34.5722 38.8144 33.4648C38.8362 33.226 38.8474 32.9841 38.8474 32.7396C38.8474 28.3996 35.3291 24.8813 30.9891 24.8813C26.649 24.8813 23.1307 28.3996 23.1307 32.7396C23.1307 37.0797 26.649 40.598 30.9891 40.598C33.0829 40.598 34.9855 39.7791 36.394 38.4441C38.5934 39.5754 41.0268 40.4682 43.6174 41.1226C43.3852 41.7679 42.8694 43.3542 42.4373 44.6833C42.2496 45.2605 42.0777 45.7892 41.9516 46.1714C40.6189 45.919 39.203 45.7507 37.787 45.6665C32.5396 45.2458 28.5416 46.2555 25.9596 48.6117C23.4608 50.9678 22.8778 54.1654 22.8778 56.3532C22.8778 61.6545 27.1257 66.0302 32.4564 66.0302C34.5282 66.0302 35.9385 65.7818 38.0966 64.1047C40.7899 62.0117 42.4207 57.0896 43.9875 52.3607L44.1471 51.8793C46.5418 52.5245 48.7021 53.758 50.5641 54.8966C50.5561 55.0416 50.5521 55.1878 50.5521 55.3348C50.5521 59.6749 54.0704 63.1932 58.4104 63.1932C62.7505 63.1932 66.2687 59.6749 66.2687 55.3348C66.2687 50.9948 62.7505 47.4765 58.4104 47.4765C56.2833 47.4765 54.3536 48.3216 52.9387 49.6944ZM61.8583 35.064C59.0754 38.0161 53.3134 37.8217 49.0621 37.0253C49.1649 36.7233 49.2883 36.3383 49.4319 35.8904C50.7277 31.8481 53.6646 22.6872 57.8603 23.2833C60.6923 23.8724 62.6913 29.0054 62.9411 30.9407C63.1077 32.7078 62.7745 34.0542 61.8583 35.064ZM27.3756 52.9032C30.0876 49.9921 36.6935 50.2327 40.3513 51.0538C40.2824 51.2478 40.2031 51.4759 40.1137 51.7328C38.8062 55.4914 35.3542 65.4146 31.3736 64.6838C28.5416 64.0948 26.5426 58.9618 26.2928 57.0264C26.1262 55.2593 26.4594 53.9129 27.3756 52.9032Z" fill="#1F223D"/>
<path d="M88.2748 31.161C88.2748 26.5726 90.5258 24.3201 95.1113 24.3201L100.999 24.3198V30.0761L97.1956 30.0764C94.6757 30.0764 94.6826 31.0315 94.6931 32.459C94.6937 32.5527 94.6944 32.6484 94.6944 32.746V35.4991L100.999 35.4988V41.2551L94.6944 41.2554V62.0282H88.2748V41.2554H83.5226V35.4991H88.2748V31.161Z" fill="#1F223D"/>
<path d="M112.349 35.5508C112.349 35.5508 111.457 35.5312 109.099 35.5312C106.741 35.5312 105.92 35.5508 105.92 35.5508V62.0799H112.349V35.5508Z" fill="#1F223D"/>
<path d="M167.682 35.5825V62.1116H174.115V35.5825C172.335 35.5829 171.202 35.5828 169.946 35.5826L167.682 35.5825Z" fill="#1F223D"/>
<path d="M220.169 34.9985C216.001 34.9985 214.167 36.667 213.5 37.6681L212.749 38.7526V35.5825H206.33V62.1116H212.749V45.9272C212.749 41.5891 215.917 40.004 218.585 40.004C221.253 40.004 224.421 41.5891 224.421 45.9272V62.1116H230.841V45.5935C230.758 37.835 225.255 34.9985 220.169 34.9985Z" fill="#1F223D"/>
<path fill-rule="evenodd" clip-rule="evenodd" d="M202.495 46.8448V50.5155C202.495 58.1072 198.159 62.3619 190.239 62.3619C182.319 62.3619 177.983 58.1906 177.983 50.5155V46.8448C177.983 39.2532 182.319 34.9985 190.239 34.9985C198.159 34.9985 202.495 39.2532 202.495 46.8448ZM195.658 45.9272C195.658 42.5902 193.74 40.0874 190.239 40.0874C186.737 40.0874 184.82 42.5902 184.82 45.9272V51.4332C184.82 54.7702 186.737 57.5232 190.239 57.5232C193.74 57.5232 195.658 54.7702 195.658 51.4332V45.9272Z" fill="#1F223D"/>
<path d="M129.048 45.9179C128.517 45.8007 128.001 45.702 127.507 45.6078C124.997 45.1283 123.097 44.7653 123.097 42.6736C123.097 40.939 124.976 39.9655 127.227 39.9655C130 39.9655 131.211 40.8831 131.417 42.757H137.468C137.049 38.1132 133.998 35.1653 127.016 35.1653C122.405 35.1653 116.803 37.0375 116.803 42.757C116.803 48.8766 122.028 50.4302 127.494 51.6627C131.192 52.4967 132.22 53.0467 132.22 54.8348C132.22 56.623 129.862 57.5885 127.608 57.5939C125.126 57.5939 122.184 57.0668 122.184 53.7428H115.902C116.135 59.882 120.806 62.655 127.248 62.655C134.343 62.655 138.556 59.8539 138.556 54.5868C138.556 48.5628 133.371 46.873 129.048 45.9179Z" fill="#1F223D"/>
<path d="M153.065 45.6078C153.558 45.702 154.075 45.8007 154.606 45.9179C158.929 46.873 164.114 48.5628 164.114 54.5868C164.114 59.8539 159.9 62.655 152.806 62.655C146.364 62.655 141.692 59.882 141.46 53.7428H147.741C147.741 57.0668 150.683 57.5939 153.165 57.5939C155.42 57.5885 157.778 56.623 157.778 54.8348C157.778 53.0467 156.75 52.4967 153.051 51.6627C147.586 50.4302 142.361 48.8766 142.361 42.757C142.361 37.0375 147.963 35.1653 152.573 35.1653C159.556 35.1653 162.607 38.1132 163.026 42.757H156.975C156.769 40.8831 155.557 39.9655 152.784 39.9655C150.533 39.9655 148.655 40.939 148.655 42.6736C148.655 44.7653 150.555 45.1283 153.065 45.6078Z" fill="#1F223D"/>
<path d="M112.82 28.5158C112.82 30.5422 111.178 32.185 109.151 32.185C107.125 32.185 105.482 30.5422 105.482 28.5158C105.482 26.4894 107.125 24.8466 109.151 24.8466C111.178 24.8466 112.82 26.4894 112.82 28.5158Z" fill="#1F223D"/>
<path d="M170.927 32.1849C172.953 32.1849 174.596 30.5422 174.596 28.5157C174.596 26.4893 172.953 24.8466 170.927 24.8466C168.9 24.8466 167.258 26.4893 167.258 28.5157C167.258 30.5422 168.9 32.1849 170.927 32.1849Z" fill="#1F223D"/>
</svg>
