<?xml version="1.0"?>
<svg xmlns="http://www.w3.org/2000/svg" width="89" height="88" viewBox="0 0 89 88" fill="none">
<path fill-rule="evenodd" clip-rule="evenodd" d="M52.5304 49.8364C48.2792 47.8478 45.3747 47.0707 45.3747 47.0707C45.607 46.4253 46.1227 44.8392 46.5548 43.51C46.7425 42.9329 46.9145 42.404 47.0405 42.0218C48.3732 42.2743 49.7892 42.4426 51.2051 42.5267C56.4525 42.9475 60.4505 41.9377 63.0326 39.5816C65.5313 37.2254 66.1143 34.0279 66.1143 31.84C66.1143 26.5387 61.8665 22.1631 56.5358 22.1631C54.9412 22.1631 52.7575 22.5219 50.3813 24.4133C48.1294 26.2057 46.6178 30.9029 45.1232 35.5469C45.0407 35.8032 44.9583 36.0594 44.8758 36.3149C42.4966 35.674 40.2676 34.7141 38.4061 33.6068C38.4279 33.368 38.4391 33.1261 38.4391 32.8816C38.4391 28.5416 34.9208 25.0233 30.5807 25.0233C26.2407 25.0233 22.7224 28.5416 22.7224 32.8816C22.7224 37.2216 26.2407 40.7399 30.5807 40.7399C32.6746 40.7399 34.5772 39.921 35.9857 38.586C38.1851 39.7174 40.6184 40.6102 43.2091 41.2645C42.9768 41.9099 42.4611 43.4961 42.0289 44.8253C41.8413 45.4025 41.6694 45.9312 41.5433 46.3134C40.2106 46.0609 38.7947 45.8926 37.3787 45.8085C32.1313 45.3877 28.1333 46.3975 25.5513 48.7536C23.0525 51.1097 22.4695 54.3073 22.4695 56.4952C22.4695 61.7965 26.7174 66.1721 32.048 66.1721C34.1199 66.1721 35.5302 65.9238 37.6882 64.2467C40.3816 62.1536 42.0124 57.2315 43.5792 52.5026L43.7387 52.0213C46.1335 52.6665 48.2938 53.9 50.1558 55.0385C50.1478 55.1836 50.1438 55.3297 50.1438 55.4768C50.1438 59.8168 53.6621 63.3351 58.0021 63.3351C62.3421 63.3351 65.8604 59.8168 65.8604 55.4768C65.8604 51.1368 62.3421 47.6185 58.0021 47.6185C55.875 47.6185 53.9453 48.4636 52.5304 49.8364ZM61.45 35.2059C58.667 38.158 52.9051 37.9637 48.6538 37.1672C48.7565 36.8653 48.88 36.4802 49.0235 36.0324C50.3194 31.9901 53.2562 22.8291 57.452 23.4253C60.2839 24.0143 62.2829 29.1473 62.5328 31.0827C62.6994 32.8498 62.3662 34.1961 61.45 35.2059ZM26.9672 53.0451C29.6793 50.134 36.2852 50.3746 39.9429 51.1958C39.8741 51.3897 39.7948 51.6178 39.7054 51.8747C38.3979 55.6333 34.9459 65.5566 30.9652 64.8258C28.1333 64.2367 26.1343 59.1037 25.8844 57.1683C25.7179 55.4013 26.051 54.0549 26.9672 53.0451Z" fill="url(#paint0_linear_417_80)"/>
<defs>
<linearGradient id="paint0_linear_417_80" x1="22.4695" y1="22.1631" x2="66.8794" y2="65.3861" gradientUnits="userSpaceOnUse">
<stop stop-color="#FF5274"/>
<stop offset="1" stop-color="#6446FA"/>
</linearGradient>
</defs>
</svg>
