<svg fill="none" viewBox="0 0 976 976" xmlns="http://www.w3.org/2000/svg"
    class="aspect-video object-cover dark:bg-stone-500 lg:aspect-auto lg:h-72">
    <rect width="800" height="800" x="88" y="88" rx="45"
        style="fill: rgb(255, 255, 255); paint-order: fill; stroke: rgb(106, 106, 106);"></rect>
    <path stroke="#7D7B7B" d="M488.5 88v800M88 487.5h800"></path>
    <path fill="#564949"
        d="M681.773 867.182c-.818 0-1.523-.193-2.114-.58-.591-.386-1.045-.918-1.364-1.596-.318-.678-.477-1.453-.477-2.324 0-.887.163-1.669.489-2.347.329-.682.788-1.214 1.375-1.596.591-.387 1.28-.58 2.068-.58.614 0 1.167.114 1.659.341.493.227.896.545 1.21.955.315.409.51.886.586 1.431h-1.341c-.103-.397-.33-.75-.682-1.056-.349-.311-.818-.466-1.409-.466-.523 0-.981.136-1.375.409-.39.269-.695.649-.915 1.142-.216.488-.324 1.062-.324 1.721 0 .675.106 1.262.318 1.762.216.5.519.888.909 1.164.394.277.856.415 1.387.415.348 0 .665-.06.949-.182.284-.121.524-.295.721-.522.197-.228.337-.5.421-.818h1.341c-.076.515-.264.979-.563 1.392-.295.409-.687.734-1.176.977-.485.238-1.049.358-1.693.358Zm8.937 0c-.788 0-1.479-.188-2.074-.563-.591-.375-1.053-.899-1.386-1.574-.33-.674-.494-1.462-.494-2.363 0-.909.164-1.703.494-2.381.333-.678.795-1.204 1.386-1.579.595-.375 1.286-.563 2.074-.563.788 0 1.478.188 2.068.563.595.375 1.057.901 1.387 1.579.333.678.5 1.472.5 2.381 0 .901-.167 1.689-.5 2.363-.33.675-.792 1.199-1.387 1.574-.59.375-1.28.563-2.068.563Zm0-1.205c.599 0 1.091-.153 1.478-.46.386-.307.672-.71.857-1.21.186-.5.279-1.042.279-1.625 0-.584-.093-1.127-.279-1.631-.185-.504-.471-.911-.857-1.221-.387-.311-.879-.466-1.478-.466-.598 0-1.091.155-1.477.466-.386.31-.672.717-.858 1.221-.186.504-.278 1.047-.278 1.631 0 .583.092 1.125.278 1.625.186.5.472.903.858 1.21.386.307.879.46 1.477.46Zm7.343-4.227V867h-1.341v-8.727h1.295v1.363h.114c.204-.443.515-.799.932-1.068.416-.273.954-.409 1.613-.409.591 0 1.108.121 1.551.364.444.238.788.602 1.034 1.091.247.484.37 1.098.37 1.841V867h-1.341v-5.455c0-.685-.178-1.219-.534-1.602-.356-.386-.845-.579-1.466-.579-.428 0-.811.092-1.148.278-.333.186-.596.456-.79.813-.193.356-.289.787-.289 1.295Zm11.813-3.477v1.136h-4.522v-1.136h4.522Zm-3.204-2.091h1.341v8.318c0 .379.055.663.165.852.113.186.257.311.431.375.178.061.366.091.563.091.148 0 .269-.007.364-.023.094-.018.17-.034.227-.045l.273 1.205c-.091.034-.218.068-.381.102-.163.038-.369.057-.619.057-.379 0-.75-.082-1.114-.245-.36-.163-.659-.411-.898-.744-.235-.333-.352-.754-.352-1.261v-8.682Zm8.787 11c-.841 0-1.566-.186-2.176-.557-.606-.375-1.074-.898-1.404-1.568-.325-.674-.488-1.459-.488-2.352 0-.894.163-1.682.488-2.364.33-.686.788-1.22 1.375-1.602.591-.387 1.281-.58 2.068-.58.455 0 .904.076 1.347.227.443.152.847.398 1.21.739.364.337.654.784.87 1.341.216.557.323 1.242.323 2.057v.568h-6.727v-1.159h5.364c0-.493-.099-.932-.296-1.318-.193-.387-.469-.692-.829-.915-.356-.224-.777-.335-1.262-.335-.534 0-.996.132-1.386.397-.386.262-.684.603-.892 1.023-.208.421-.312.871-.312 1.352v.773c0 .659.113 1.218.34 1.676.232.455.552.801.961 1.04.409.235.884.352 1.426.352.352 0 .67-.049.954-.147.288-.103.536-.254.745-.455.208-.205.369-.458.483-.761l1.295.363c-.136.44-.365.826-.687 1.159-.322.33-.72.587-1.194.773-.473.182-1.005.273-1.596.273Zm6.994-5.432V867h-1.341v-8.727h1.296v1.363h.113c.205-.443.516-.799.932-1.068.417-.273.955-.409 1.614-.409.591 0 1.108.121 1.551.364.443.238.788.602 1.034 1.091.246.484.369 1.098.369 1.841V867h-1.341v-5.455c0-.685-.178-1.219-.534-1.602-.356-.386-.844-.579-1.466-.579-.428 0-.81.092-1.147.278-.334.186-.597.456-.79.813-.193.356-.29.787-.29 1.295Zm11.814-3.477v1.136h-4.523v-1.136h4.523Zm-3.204-2.091h1.34v8.318c0 .379.055.663.165.852.114.186.258.311.432.375.178.061.366.091.563.091.147 0 .268-.007.363-.023.095-.018.171-.034.227-.045l.273 1.205c-.091.034-.218.068-.38.102-.163.038-.37.057-.62.057-.379 0-.75-.082-1.113-.245-.36-.163-.66-.411-.898-.744-.235-.333-.352-.754-.352-1.261v-8.682Zm13.267 11c-.819 0-1.523-.193-2.114-.58-.591-.386-1.045-.918-1.364-1.596-.318-.678-.477-1.453-.477-2.324 0-.887.163-1.669.489-2.347.329-.682.788-1.214 1.375-1.596.591-.387 1.28-.58 2.068-.58.614 0 1.167.114 1.659.341.492.227.896.545 1.21.955.315.409.51.886.585 1.431h-1.34c-.103-.397-.33-.75-.682-1.056-.349-.311-.818-.466-1.409-.466-.523 0-.981.136-1.375.409-.391.269-.695.649-.915 1.142-.216.488-.324 1.062-.324 1.721 0 .675.106 1.262.318 1.762.216.5.519.888.909 1.164.394.277.856.415 1.387.415.348 0 .664-.06.948-.182.285-.121.525-.295.722-.522.197-.228.337-.5.421-.818h1.34c-.075.515-.263.979-.562 1.392-.296.409-.688.734-1.176.977-.485.238-1.049.358-1.693.358Zm8.937 0c-.788 0-1.479-.188-2.074-.563-.591-.375-1.053-.899-1.386-1.574-.33-.674-.494-1.462-.494-2.363 0-.909.164-1.703.494-2.381.333-.678.795-1.204 1.386-1.579.595-.375 1.286-.563 2.074-.563.788 0 1.477.188 2.068.563.595.375 1.057.901 1.387 1.579.333.678.5 1.472.5 2.381 0 .901-.167 1.689-.5 2.363-.33.675-.792 1.199-1.387 1.574-.591.375-1.28.563-2.068.563Zm0-1.205c.599 0 1.091-.153 1.477-.46.387-.307.673-.71.858-1.21.186-.5.279-1.042.279-1.625 0-.584-.093-1.127-.279-1.631-.185-.504-.471-.911-.858-1.221-.386-.311-.878-.466-1.477-.466-.598 0-1.091.155-1.477.466-.387.31-.673.717-.858 1.221-.186.504-.279 1.047-.279 1.631 0 .583.093 1.125.279 1.625.185.5.471.903.858 1.21.386.307.879.46 1.477.46Zm6.002 1.023v-8.727h1.295v1.363h.114c.181-.466.475-.827.88-1.085.406-.261.892-.392 1.461-.392.575 0 1.054.131 1.437.392.386.258.688.619.903 1.085h.091c.224-.45.559-.808 1.006-1.074.447-.268.983-.403 1.608-.403.78 0 1.419.244 1.915.733.496.485.744 1.241.744 2.267V867h-1.341v-5.841c0-.644-.176-1.104-.528-1.381-.353-.276-.767-.414-1.245-.414-.613 0-1.089.185-1.426.556-.337.368-.505.834-.505 1.398V867h-1.364v-5.977c0-.496-.161-.896-.483-1.199-.322-.307-.737-.46-1.244-.46-.349 0-.675.092-.978.278-.299.186-.541.443-.727.773-.182.326-.273.702-.273 1.13V867h-1.34Zm13.906 3.273v-12h1.295v1.386h.159c.099-.151.235-.345.409-.579.178-.239.432-.451.762-.637.333-.189.784-.284 1.352-.284.735 0 1.383.184 1.943.551.561.368.998.888 1.313 1.563.314.674.471 1.469.471 2.386 0 .924-.157 1.725-.471 2.403-.315.675-.75 1.197-1.307 1.569-.557.367-1.199.551-1.926.551-.561 0-1.01-.093-1.347-.279-.337-.189-.596-.403-.778-.642-.182-.242-.322-.443-.421-.602h-.113v4.614h-1.341Zm1.318-7.637c0 .659.097 1.241.29 1.745.193.5.475.892.846 1.176.372.28.826.42 1.364.42.561 0 1.028-.147 1.403-.443.379-.299.663-.701.853-1.204.193-.508.289-1.072.289-1.694 0-.613-.094-1.166-.284-1.659-.185-.496-.467-.888-.846-1.176-.375-.292-.847-.437-1.415-.437-.545 0-1.004.138-1.375.414-.371.273-.652.656-.841 1.148-.189.489-.284 1.059-.284 1.71Zm9.773-7.272V867h-1.341v-11.636h1.341Zm6.115 11.818c-.841 0-1.567-.186-2.176-.557-.606-.375-1.074-.898-1.404-1.568-.326-.674-.488-1.459-.488-2.352 0-.894.162-1.682.488-2.364.33-.686.788-1.22 1.375-1.602.591-.387 1.28-.58 2.068-.58.455 0 .904.076 1.347.227.443.152.847.398 1.21.739.364.337.654.784.87 1.341.215.557.323 1.242.323 2.057v.568h-6.727v-1.159h5.364c0-.493-.099-.932-.296-1.318-.193-.387-.469-.692-.829-.915-.356-.224-.777-.335-1.262-.335-.534 0-.996.132-1.386.397-.386.262-.684.603-.892 1.023-.208.421-.313.871-.313 1.352v.773c0 .659.114 1.218.341 1.676.231.455.552.801.961 1.04.409.235.884.352 1.426.352.352 0 .67-.049.954-.147.288-.103.536-.254.745-.455.208-.205.369-.458.483-.761l1.295.363c-.136.44-.366.826-.687 1.159-.322.33-.72.587-1.194.773-.473.182-1.005.273-1.596.273Zm6.419-8.909 2.091 3.568 2.091-3.568h1.545l-2.818 4.363 2.818 4.364h-1.545l-2.091-3.386L796.79 867h-1.546l2.773-4.364-2.773-4.363h1.546Zm7.64 8.727v-8.727h1.341V867h-1.341Zm.682-10.182c-.261 0-.487-.089-.676-.267-.186-.178-.278-.392-.278-.642s.092-.464.278-.642c.189-.178.415-.267.676-.267.262 0 .485.089.671.267.189.178.284.392.284.642s-.095.464-.284.642c-.186.178-.409.267-.671.267Zm6.911 1.455v1.136H807.5v-1.136h4.523Zm-3.205-2.091h1.341v8.318c0 .379.055.663.165.852.114.186.257.311.432.375.178.061.365.091.562.091.148 0 .269-.007.364-.023.095-.018.17-.034.227-.045l.273 1.205c-.091.034-.218.068-.381.102-.163.038-.369.057-.619.057-.379 0-.75-.082-1.114-.245-.36-.163-.659-.411-.898-.744-.234-.333-.352-.754-.352-1.261v-8.682Zm6.085 14.091c-.227 0-.43-.019-.608-.057-.178-.034-.301-.068-.369-.102l.341-1.182c.326.083.614.113.864.091.25-.023.471-.135.664-.335.197-.197.377-.518.54-.961l.25-.682-3.227-8.772h1.454l2.41 6.954h.09l2.41-6.954h1.454l-3.704 10c-.167.45-.374.824-.62 1.119-.246.299-.532.521-.858.665-.322.144-.685.216-1.091.216ZM834.821 867l-.875-.864 3.602-3.602h-9.329v-1.25h9.329l-3.602-3.591.875-.875 5.091 5.091-5.091 5.091ZM121.182 266.477c0 .728-.184 1.37-.551 1.926-.372.557-.894.993-1.569 1.307-.678.315-1.479.472-2.403.472-.917 0-1.712-.157-2.386-.472-.675-.314-1.195-.752-1.563-1.312-.367-.561-.551-1.209-.551-1.943 0-.569.095-1.018.284-1.347.186-.333.398-.587.637-.761.234-.178.428-.317.579-.415v-.114h-4.295v-1.341H121v1.296h-1.341v.159c.159.098.36.238.602.42.239.182.453.442.642.779.186.337.279.786.279 1.346Zm-1.205-.182c0-.537-.14-.992-.42-1.363-.284-.371-.676-.654-1.176-.847-.504-.193-1.086-.29-1.745-.29-.651 0-1.221.095-1.71.285-.492.189-.875.469-1.148.84-.276.372-.414.83-.414 1.375 0 .569.145 1.042.437 1.421.288.375.68.657 1.176.846.493.186 1.046.279 1.659.279.622 0 1.186-.095 1.694-.284.503-.193.905-.477 1.204-.852.296-.379.443-.849.443-1.41Zm1.205-10.119c0 .841-.186 1.566-.557 2.176-.375.606-.898 1.074-1.568 1.404-.674.325-1.459.488-2.352.488-.894 0-1.682-.163-2.364-.488-.686-.33-1.22-.788-1.602-1.375-.387-.591-.58-1.281-.58-2.069 0-.454.076-.903.227-1.346.152-.443.398-.847.739-1.21.337-.364.784-.654 1.341-.87.557-.216 1.242-.324 2.057-.324h.568v6.728h-1.159v-5.364c-.493 0-.932.099-1.318.296-.387.193-.692.469-.915.829-.224.356-.335.777-.335 1.261 0 .535.132.997.397 1.387.262.386.603.684 1.023.892.421.208.871.312 1.352.312h.773c.659 0 1.218-.113 1.676-.341.455-.231.801-.551 1.04-.96.235-.409.352-.884.352-1.426 0-.352-.049-.67-.147-.954-.103-.288-.254-.536-.455-.745-.205-.208-.458-.369-.761-.483l.363-1.295c.44.136.826.365 1.159.687.33.322.587.72.773 1.194.182.473.273 1.005.273 1.596Zm0-9.199c0 .818-.193 1.523-.58 2.114-.386.591-.918 1.045-1.596 1.364-.678.318-1.453.477-2.324.477-.887 0-1.669-.163-2.347-.489-.682-.329-1.214-.788-1.596-1.375-.387-.591-.58-1.28-.58-2.068 0-.614.114-1.167.341-1.659.227-.493.545-.896.955-1.21.409-.315.886-.51 1.431-.586v1.341c-.397.103-.75.33-1.056.682-.311.349-.466.818-.466 1.409 0 .523.136.981.409 1.375.269.39.649.695 1.142.915.488.216 1.062.324 1.721.324.675 0 1.262-.106 1.762-.318.5-.216.888-.519 1.164-.909.277-.394.415-.856.415-1.387 0-.348-.06-.665-.182-.949-.121-.284-.295-.524-.522-.721-.228-.197-.5-.337-.818-.421v-1.341c.515.076.979.264 1.392.563.409.295.734.687.977 1.176.238.485.358 1.049.358 1.693Zm0-9.051c0 .841-.186 1.566-.557 2.176-.375.606-.898 1.074-1.568 1.404-.674.325-1.459.488-2.352.488-.894 0-1.682-.163-2.364-.488-.686-.33-1.22-.788-1.602-1.375-.387-.591-.58-1.281-.58-2.069 0-.454.076-.903.227-1.346.152-.443.398-.847.739-1.21.337-.364.784-.654 1.341-.87.557-.216 1.242-.324 2.057-.324h.568v6.728h-1.159v-5.364c-.493 0-.932.099-1.318.296-.387.193-.692.469-.915.829-.224.356-.335.777-.335 1.261 0 .535.132.997.397 1.387.262.386.603.684 1.023.892.421.208.871.312 1.352.312h.773c.659 0 1.218-.113 1.676-.341.455-.231.801-.551 1.04-.96.235-.409.352-.884.352-1.426 0-.352-.049-.67-.147-.954-.103-.288-.254-.536-.455-.745-.205-.208-.458-.369-.761-.483l.363-1.295c.44.136.826.365 1.159.687.33.322.587.72.773 1.194.182.473.273 1.005.273 1.596Zm-5.432-6.994H121v1.341h-8.727v-1.296h1.363v-.113c-.443-.205-.799-.516-1.068-.932-.273-.417-.409-.955-.409-1.614 0-.591.121-1.108.364-1.551.238-.443.602-.788 1.091-1.034.484-.246 1.098-.369 1.841-.369H121v1.341h-5.455c-.685 0-1.219.178-1.602.534-.386.356-.579.844-.579 1.466 0 .428.092.81.278 1.147.186.334.456.597.813.79.356.193.787.29 1.295.29Zm-3.477-11.814h1.136v4.523h-1.136v-4.523Zm-2.091 3.204v-1.34h8.318c.379 0 .663-.055.852-.165.186-.114.311-.258.375-.432.061-.178.091-.366.091-.563 0-.147-.007-.268-.023-.363-.018-.095-.034-.171-.045-.227l1.205-.273c.034.091.068.218.102.38.038.163.057.37.057.62 0 .379-.082.75-.245 1.113-.163.36-.411.66-.744.898-.333.235-.754.352-1.261.352h-8.682ZM121 217.101h-8.727v-1.296h1.318v-.091c-.432-.159-.782-.446-1.051-.863-.269-.417-.404-.887-.404-1.409 0-.099.002-.222.006-.37.004-.147.01-.259.017-.335h1.364c-.012.046-.029.15-.051.313-.027.159-.04.327-.04.505 0 .425.089.803.267 1.137.174.329.417.591.727.784.307.189.657.284 1.051.284H121v1.341Zm.205-8.521c0 .553-.105 1.054-.313 1.505-.212.451-.517.809-.915 1.074-.401.265-.886.398-1.454.398-.5 0-.906-.099-1.216-.296-.315-.197-.561-.46-.739-.789-.178-.33-.31-.694-.398-1.091-.09-.402-.162-.805-.215-1.211-.069-.53-.12-.96-.154-1.289-.038-.334-.1-.576-.187-.728-.087-.155-.239-.233-.455-.233h-.045c-.561 0-.997.154-1.307.461-.311.303-.466.763-.466 1.38 0 .641.14 1.142.42 1.506.281.364.58.619.898.767l-.454 1.273c-.531-.227-.944-.53-1.239-.909-.299-.383-.508-.8-.625-1.25-.121-.455-.182-.902-.182-1.341 0-.28.034-.602.102-.966.065-.368.199-.722.404-1.063.204-.344.513-.63.926-.858.413-.227.966-.34 1.659-.34H121v1.34h-1.182v.069c.19.091.392.242.608.454.216.212.4.494.551.847.152.352.228.782.228 1.29Zm-1.205-.205c0-.53-.104-.977-.312-1.341-.209-.367-.478-.644-.807-.829-.33-.19-.676-.285-1.04-.285h-1.227c.068.057.13.182.187.375.053.19.101.41.142.66.038.246.072.486.102.721.027.231.05.419.069.563.045.348.119.674.221.977.099.299.248.542.449.727.197.182.466.273.807.273.466 0 .818-.172 1.057-.517.235-.349.352-.79.352-1.324Zm-10.636-7.584H121v1.341h-11.636v-1.341ZM121 198.335h-8.727v-1.341H121v1.341Zm-10.182-.682c0 .262-.089.487-.267.677-.178.185-.392.278-.642.278s-.464-.093-.642-.278c-.178-.19-.267-.415-.267-.677 0-.261.089-.484.267-.67.178-.189.392-.284.642-.284s.464.095.642.284c.178.186.267.409.267.67ZM121 194.788h-1.023l-6.363-4.954h-.091v4.795h-1.25v-6.522h1.068l6.318 4.818h.091v-4.978H121v6.841Zm-8.727-12.701h1.136v4.522h-1.136v-4.522Zm-2.091 3.204v-1.341h8.318c.379 0 .663-.055.852-.164.186-.114.311-.258.375-.432.061-.178.091-.366.091-.563 0-.148-.007-.269-.023-.363-.018-.095-.034-.171-.045-.228l1.205-.272c.034.09.068.217.102.38.038.163.057.37.057.62 0 .378-.082.75-.245 1.113-.163.36-.411.659-.744.898-.333.235-.754.352-1.261.352h-8.682ZM121 180.07h-8.727v-1.341H121v1.341Zm-10.182-.682c0 .261-.089.487-.267.676-.178.186-.392.278-.642.278s-.464-.092-.642-.278c-.178-.189-.267-.415-.267-.676 0-.262.089-.485.267-.671.178-.189.392-.284.642-.284s.464.095.642.284c.178.186.267.409.267.671Zm10.364-6.661c0 .788-.188 1.479-.563 2.074-.375.591-.899 1.053-1.574 1.387-.674.329-1.462.494-2.363.494-.909 0-1.703-.165-2.381-.494-.678-.334-1.204-.796-1.579-1.387-.375-.595-.563-1.286-.563-2.074 0-.788.188-1.477.563-2.068.375-.595.901-1.057 1.579-1.386.678-.334 1.472-.5 2.381-.5.901 0 1.689.166 2.363.5.675.329 1.199.791 1.574 1.386.375.591.563 1.28.563 2.068Zm-1.205 0c0-.598-.153-1.091-.46-1.477-.307-.386-.71-.672-1.21-.858-.5-.186-1.042-.278-1.625-.278-.584 0-1.127.092-1.631.278-.504.186-.911.472-1.221.858-.311.386-.466.879-.466 1.477 0 .599.155 1.091.466 1.478.31.386.717.672 1.221.857.504.186 1.047.279 1.631.279.583 0 1.125-.093 1.625-.279.5-.185.903-.471 1.21-.857.307-.387.46-.879.46-1.478Zm-4.227-7.342H121v1.341h-8.727v-1.296h1.363v-.113c-.443-.205-.799-.515-1.068-.932-.273-.417-.409-.955-.409-1.614 0-.591.121-1.108.364-1.551.238-.443.602-.788 1.091-1.034.484-.246 1.098-.369 1.841-.369H121v1.341h-5.455c-.685 0-1.219.178-1.602.534-.386.356-.579.844-.579 1.466 0 .428.092.81.278 1.147.186.334.456.597.813.79.356.193.787.29 1.295.29Zm5.25-19.894-.864.875-3.602-3.602v9.33h-1.25v-9.33l-3.591 3.602-.875-.875 5.091-5.09 5.091 5.09Z"></path>
    <circle cx="163" cy="261" r="10" fill="#7ED686"></circle>
    <path fill="#000"
        d="M185.761 255.455h2.103l4.943 12.073h.17l4.943-12.073h2.103V270h-1.648v-11.051h-.142L193.688 270h-1.591l-4.546-11.051h-.142V270h-1.648v-14.545ZM203.327 270v-10.909h1.676V270h-1.676Zm.852-12.727c-.326 0-.608-.112-.845-.334-.232-.223-.348-.49-.348-.803 0-.312.116-.58.348-.802.237-.223.519-.334.845-.334.327 0 .606.111.838.334.237.222.356.49.356.802 0 .313-.119.58-.356.803-.232.222-.511.334-.838.334ZM208.073 270v-10.909h1.619v1.648h.114c.199-.54.559-.978 1.08-1.314.52-.336 1.108-.505 1.761-.505.123 0 .277.003.462.008.184.004.324.011.419.021v1.704c-.057-.014-.187-.035-.391-.064-.199-.033-.409-.049-.632-.049-.53 0-1.004.111-1.42.334-.412.217-.739.52-.981.909-.236.383-.355.821-.355 1.314V270h-1.676Zm7.442 0v-10.909h1.619v1.648h.114c.198-.54.558-.978 1.079-1.314.521-.336 1.108-.505 1.761-.505.124 0 .277.003.462.008.185.004.324.011.419.021v1.704c-.057-.014-.187-.035-.391-.064-.198-.033-.409-.049-.632-.049-.53 0-1.003.111-1.42.334-.412.217-.739.52-.98.909-.237.383-.355.821-.355 1.314V270h-1.676Zm11.541.227c-.985 0-1.849-.234-2.593-.703-.738-.469-1.316-1.124-1.733-1.967-.411-.843-.617-1.828-.617-2.955 0-1.136.206-2.128.617-2.976.417-.847.995-1.505 1.733-1.974.744-.469 1.608-.703 2.593-.703.985 0 1.846.234 2.585.703.743.469 1.321 1.127 1.733 1.974.417.848.625 1.84.625 2.976 0 1.127-.208 2.112-.625 2.955-.412.843-.99 1.498-1.733 1.967-.739.469-1.6.703-2.585.703Zm0-1.505c.748 0 1.363-.192 1.846-.576.483-.383.841-.887 1.073-1.512.232-.625.348-1.303.348-2.032 0-.729-.116-1.408-.348-2.038-.232-.63-.59-1.139-1.073-1.527-.483-.388-1.098-.582-1.846-.582s-1.364.194-1.847.582c-.483.388-.84.897-1.072 1.527-.232.63-.348 1.309-.348 2.038 0 .729.116 1.407.348 2.032.232.625.589 1.129 1.072 1.512.483.384 1.099.576 1.847.576Zm7.502 1.278v-10.909h1.619v1.648h.113c.199-.54.559-.978 1.08-1.314.521-.336 1.108-.505 1.761-.505.123 0 .277.003.462.008.185.004.324.011.419.021v1.704c-.057-.014-.187-.035-.391-.064-.198-.033-.409-.049-.632-.049-.53 0-1.003.111-1.42.334-.412.217-.739.52-.98.909-.237.383-.355.821-.355 1.314V270h-1.676Z"></path>
    <circle cx="135" cy="797" r="10" fill="#D6887E"></circle>
    <path fill="#000"
        d="M157.761 791.455h2.103l4.943 12.073h.17l4.943-12.073h2.103V806h-1.648v-11.051h-.142L165.688 806h-1.591l-4.546-11.051h-.142V806h-1.648v-14.545Zm22.14 14.772c-1.051 0-1.958-.232-2.72-.696-.758-.469-1.343-1.122-1.755-1.96-.407-.843-.61-1.823-.61-2.94 0-1.118.203-2.103.61-2.955.412-.857.985-1.524 1.719-2.003.739-.483 1.601-.724 2.585-.724.569 0 1.13.095 1.684.284.554.189 1.058.497 1.512.923.455.422.817.98 1.087 1.676s.405 1.553.405 2.571v.711h-8.409v-1.449h6.704c0-.616-.123-1.165-.369-1.648-.241-.483-.587-.864-1.037-1.143-.445-.28-.97-.419-1.577-.419-.667 0-1.245.165-1.732.497-.483.326-.855.753-1.116 1.278-.26.526-.39 1.089-.39 1.69v.966c0 .824.142 1.523.426 2.096.289.568.689 1.001 1.2 1.299.512.294 1.106.441 1.783.441.44 0 .838-.062 1.193-.185.36-.128.67-.317.931-.568.26-.256.461-.573.603-.952l1.62.455c-.171.549-.457 1.032-.86 1.448-.402.412-.899.734-1.491.966-.592.228-1.257.341-1.996.341Zm11.186 0c-.909 0-1.712-.229-2.408-.689-.696-.464-1.24-1.117-1.633-1.96-.393-.847-.59-1.849-.59-3.004 0-1.146.197-2.14.59-2.983.393-.843.94-1.494 1.64-1.953.701-.459 1.511-.689 2.429-.689.711 0 1.272.118 1.684.355.416.232.734.497.951.795.223.294.396.535.519.725h.142v-5.369h1.676V806h-1.619v-1.676h-.199c-.123.199-.298.45-.526.753-.227.298-.551.566-.973.802-.421.232-.982.348-1.683.348Zm.227-1.505c.673 0 1.241-.176 1.705-.526.464-.355.817-.845 1.058-1.47.242-.63.362-1.357.362-2.181 0-.814-.118-1.527-.355-2.137-.237-.616-.587-1.094-1.051-1.435-.464-.346-1.037-.518-1.719-.518-.71 0-1.302.182-1.775.546-.469.36-.822.85-1.059 1.471-.232.615-.348 1.306-.348 2.073 0 .777.119 1.482.356 2.117.241.63.596 1.132 1.065 1.506.473.369 1.061.554 1.761.554ZM199.39 806v-10.909h1.676V806h-1.676Zm.852-12.727c-.327 0-.609-.112-.845-.334-.232-.223-.348-.49-.348-.803 0-.312.116-.58.348-.802.236-.223.518-.334.845-.334.327 0 .606.111.838.334.237.222.355.49.355.802 0 .313-.118.58-.355.803-.232.222-.511.334-.838.334Zm10.769 8.267v-6.449h1.676V806h-1.676v-1.847h-.114c-.256.554-.653 1.026-1.193 1.414-.54.383-1.222.575-2.046.575-.681 0-1.287-.149-1.818-.447-.53-.303-.947-.758-1.25-1.364-.303-.611-.454-1.38-.454-2.308v-6.932h1.676v6.818c0 .796.222 1.43.667 1.903.45.474 1.023.711 1.719.711.417 0 .841-.107 1.271-.32.436-.213.801-.54 1.094-.98.299-.44.448-1.001.448-1.683Zm4.746 4.46v-10.909h1.619v1.704h.142c.227-.582.594-1.034 1.101-1.356.507-.327 1.115-.49 1.825-.49.72 0 1.319.163 1.797.49.483.322.859.774 1.129 1.356h.114c.279-.563.698-1.01 1.257-1.342.559-.336 1.229-.504 2.01-.504.975 0 1.773.305 2.394.916.62.606.93 1.551.93 2.834V806h-1.676v-7.301c0-.805-.22-1.38-.661-1.726-.44-.346-.959-.518-1.555-.518-.767 0-1.361.232-1.783.696-.421.459-.632 1.041-.632 1.747V806h-1.704v-7.472c0-.62-.202-1.119-.604-1.498-.403-.384-.921-.575-1.556-.575-.435 0-.842.116-1.221.348-.374.232-.677.554-.909.965-.227.408-.341.879-.341 1.414V806h-1.676Z"></path>
    <circle cx="663" cy="699" r="10" fill="#D6887E"></circle>
    <path fill="#000"
        d="M697.466 698h-1.761c-.105-.507-.287-.952-.547-1.335-.256-.384-.569-.706-.938-.966-.364-.265-.769-.464-1.214-.597-.445-.132-.909-.199-1.392-.199-.881 0-1.679.223-2.394.668-.71.445-1.276 1.101-1.697 1.967-.417.867-.625 1.93-.625 3.189 0 1.26.208 2.323.625 3.189.421.867.987 1.522 1.697 1.968.715.445 1.513.667 2.394.667.483 0 .947-.066 1.392-.199.445-.132.85-.329 1.214-.589.369-.265.682-.59.938-.973.26-.388.442-.834.547-1.335h1.761c-.133.743-.374 1.408-.725 1.995-.35.587-.786 1.087-1.306 1.499-.521.407-1.106.717-1.755.93-.644.213-1.332.32-2.066.32-1.241 0-2.344-.303-3.31-.909-.966-.606-1.726-1.468-2.28-2.585-.554-1.118-.831-2.444-.831-3.978 0-1.534.277-2.86.831-3.977.554-1.117 1.314-1.979 2.28-2.585.966-.606 2.069-.909 3.31-.909.734 0 1.422.106 2.066.319.649.213 1.234.526 1.755.938.52.407.956.904 1.306 1.491.351.583.592 1.248.725 1.996Zm7.051 10.227c-.985 0-1.849-.234-2.593-.703-.738-.469-1.316-1.124-1.733-1.967-.412-.843-.617-1.828-.617-2.955 0-1.136.205-2.128.617-2.976.417-.847.995-1.505 1.733-1.974.744-.469 1.608-.703 2.593-.703.985 0 1.846.234 2.585.703.743.469 1.321 1.127 1.733 1.974.417.848.625 1.84.625 2.976 0 1.127-.208 2.112-.625 2.955-.412.843-.99 1.498-1.733 1.967-.739.469-1.6.703-2.585.703Zm0-1.505c.748 0 1.363-.192 1.846-.576.483-.383.841-.887 1.073-1.512.232-.625.348-1.303.348-2.032 0-.729-.116-1.408-.348-2.038-.232-.63-.59-1.139-1.073-1.527-.483-.388-1.098-.582-1.846-.582s-1.364.194-1.847.582c-.483.388-.84.897-1.072 1.527-.232.63-.348 1.309-.348 2.038 0 .729.116 1.407.348 2.032.232.625.589 1.129 1.072 1.512.483.384 1.099.576 1.847.576Zm9.178-5.284V708h-1.677v-10.909h1.62v1.704h.142c.256-.554.644-.999 1.165-1.335.52-.341 1.193-.511 2.017-.511.738 0 1.385.151 1.939.454.554.299.984.753 1.292 1.364.308.606.462 1.373.462 2.301V708h-1.676v-6.818c0-.857-.223-1.525-.668-2.003-.445-.483-1.056-.724-1.832-.724-.535 0-1.014.116-1.435.348-.417.232-.746.57-.987 1.015-.242.445-.362.985-.362 1.62Zm14.767-4.347v1.42h-5.653v-1.42h5.653Zm-4.006-2.614h1.676v10.398c0 .473.069.829.206 1.065.142.232.322.389.54.469.223.076.457.114.703.114.185 0 .336-.01.455-.029.118-.023.213-.042.284-.056l.341 1.505c-.114.043-.272.085-.476.128-.204.047-.462.071-.774.071-.474 0-.938-.102-1.392-.305-.45-.204-.824-.514-1.122-.931-.294-.416-.441-.942-.441-1.576v-10.853Zm10.984 13.75c-1.051 0-1.958-.232-2.72-.696-.758-.469-1.343-1.122-1.754-1.96-.408-.843-.611-1.823-.611-2.94 0-1.118.203-2.103.611-2.955.411-.857.984-1.524 1.718-2.003.739-.483 1.601-.724 2.586-.724.568 0 1.129.095 1.683.284.554.189 1.058.497 1.513.923.454.422.816.98 1.086 1.676.27.696.405 1.553.405 2.571v.711h-8.409v-1.449h6.704c0-.616-.123-1.165-.369-1.648-.241-.483-.587-.864-1.037-1.143-.445-.28-.97-.419-1.576-.419-.668 0-1.246.165-1.733.497-.483.326-.855.753-1.115 1.278-.261.526-.391 1.089-.391 1.69v.966c0 .824.142 1.523.426 2.096.289.568.689 1.001 1.2 1.299.512.294 1.106.441 1.783.441.44 0 .838-.062 1.193-.185.36-.128.67-.317.931-.568.26-.256.461-.573.603-.952l1.62.455c-.171.549-.457 1.032-.86 1.448-.402.412-.899.734-1.491.966-.592.228-1.257.341-1.996.341Zm8.743-6.789V708h-1.676v-10.909h1.619v1.704h.142c.256-.554.644-.999 1.165-1.335.521-.341 1.193-.511 2.017-.511.739 0 1.385.151 1.939.454.554.299.985.753 1.292 1.364.308.606.462 1.373.462 2.301V708h-1.676v-6.818c0-.857-.223-1.525-.668-2.003-.445-.483-1.056-.724-1.832-.724-.535 0-1.013.116-1.435.348-.416.232-.745.57-.987 1.015-.241.445-.362.985-.362 1.62Zm14.767-4.347v1.42h-5.653v-1.42h5.653Zm-4.005-2.614h1.676v10.398c0 .473.068.829.206 1.065.142.232.322.389.539.469.223.076.457.114.704.114.184 0 .336-.01.454-.029.119-.023.213-.042.284-.056l.341 1.505c-.113.043-.272.085-.476.128-.203.047-.461.071-.774.071-.473 0-.937-.102-1.392-.305-.45-.204-.824-.514-1.122-.931-.294-.416-.44-.942-.44-1.576v-10.853Zm11.385 2.614v1.42h-5.881v-1.42h5.881ZM762.21 708v-12.415c0-.625.147-1.146.441-1.562.293-.417.674-.729 1.143-.938.469-.208.964-.312 1.484-.312.412 0 .749.033 1.009.099.26.066.454.128.582.185l-.483 1.449c-.085-.029-.203-.064-.355-.107-.147-.042-.341-.064-.582-.064-.554 0-.954.14-1.2.419-.242.28-.363.689-.363 1.229V708h-1.676Zm13.344-4.46v-6.449h1.676V708h-1.676v-1.847h-.114c-.256.554-.653 1.026-1.193 1.414-.54.383-1.222.575-2.046.575-.681 0-1.288-.149-1.818-.447-.53-.303-.947-.758-1.25-1.364-.303-.611-.454-1.38-.454-2.308v-6.932h1.676v6.818c0 .796.222 1.43.667 1.903.45.474 1.023.711 1.719.711.417 0 .841-.107 1.271-.32.436-.213.801-.54 1.094-.98.298-.44.448-1.001.448-1.683Zm6.422-10.085V708H780.3v-14.545h1.676Z"></path>
    <circle cx="761" cy="584" r="10" fill="#D6C27E"></circle>
    <path fill="#000"
        d="M783.761 593v-14.545h1.762v6.477h7.755v-6.477h1.762V593h-1.762v-6.506h-7.755V593h-1.762Zm15.657 4.091c-.284 0-.537-.024-.76-.071-.222-.043-.376-.085-.461-.128l.426-1.477c.407.104.767.142 1.079.113.313-.028.59-.168.831-.419.247-.246.471-.646.675-1.2l.313-.852-4.034-10.966h1.818l3.011 8.693h.114l3.011-8.693h1.818l-4.63 12.5c-.209.563-.467 1.03-.775 1.399-.307.374-.665.651-1.072.831-.403.18-.857.27-1.364.27Zm14.066.227c-.809 0-1.505-.104-2.088-.312-.582-.204-1.067-.474-1.456-.81-.383-.331-.689-.687-.916-1.065l1.335-.938c.152.199.344.426.576.682.232.26.549.485.951.675.408.194.94.291 1.598.291.881 0 1.608-.213 2.181-.639.573-.426.859-1.094.859-2.003v-2.216h-.142c-.123.199-.298.445-.525.739-.223.288-.545.546-.966.774-.417.222-.98.334-1.691.334-.88 0-1.671-.209-2.372-.625-.696-.417-1.248-1.023-1.655-1.819-.402-.795-.603-1.761-.603-2.897 0-1.118.196-2.091.589-2.919.393-.834.94-1.478 1.641-1.932.7-.459 1.51-.689 2.429-.689.71 0 1.273.118 1.69.355.421.232.743.497.966.795.227.294.402.535.526.725h.17v-1.733h1.619v11.221c0 .938-.213 1.7-.639 2.287-.421.592-.99 1.026-1.704 1.3-.711.28-1.501.419-2.373.419Zm-.056-5.994c.672 0 1.24-.154 1.704-.462.464-.308.817-.75 1.058-1.328.242-.578.363-1.269.363-2.074 0-.786-.119-1.479-.356-2.081-.236-.601-.587-1.072-1.051-1.413-.464-.341-1.037-.511-1.718-.511-.711 0-1.303.179-1.776.539-.469.36-.822.843-1.058 1.449-.232.606-.348 1.279-.348 2.017 0 .758.118 1.428.355 2.01.241.578.596 1.032 1.065 1.364.474.327 1.061.49 1.762.49Zm7.84 1.676v-10.909h1.62v1.648h.113c.199-.54.559-.978 1.08-1.314.521-.336 1.108-.505 1.761-.505.123 0 .277.003.462.008.185.004.324.011.419.021v1.704c-.057-.014-.187-.035-.391-.064-.198-.033-.409-.049-.632-.049-.53 0-1.004.111-1.42.334-.412.217-.739.52-.98.909-.237.383-.355.821-.355 1.314V593h-1.677Zm10.652.256c-.691 0-1.319-.131-1.882-.391-.563-.265-1.011-.646-1.342-1.143-.332-.502-.497-1.108-.497-1.819 0-.625.123-1.131.369-1.519.246-.393.575-.701.987-.924.412-.222.867-.388 1.364-.497.502-.114 1.006-.204 1.512-.27.663-.085 1.201-.149 1.613-.192.416-.047.719-.125.909-.234.194-.109.291-.298.291-.568v-.057c0-.701-.192-1.245-.575-1.633-.379-.389-.954-.583-1.726-.583-.8 0-1.428.175-1.882.526-.455.35-.774.724-.959 1.122l-1.591-.568c.284-.663.663-1.179 1.136-1.549.479-.374.999-.634 1.563-.781.568-.151 1.127-.227 1.676-.227.35 0 .753.042 1.207.128.46.08.902.248 1.329.504.43.256.788.642 1.072 1.158.284.516.426 1.207.426 2.073V593h-1.676v-1.477h-.085c-.114.236-.303.49-.568.76-.266.27-.618.499-1.059.689-.44.189-.977.284-1.612.284Zm.256-1.506c.663 0 1.221-.13 1.676-.391.459-.26.805-.596 1.037-1.008.237-.412.355-.845.355-1.3v-1.534c-.071.085-.227.163-.469.234-.237.067-.511.126-.824.178-.307.047-.608.09-.902.128-.288.033-.523.061-.703.085-.435.057-.843.149-1.221.277-.374.123-.677.31-.909.561-.228.246-.341.582-.341 1.009 0 .582.215 1.022.646 1.321.436.293.987.44 1.655.44Zm7.803 5.341v-15h1.62v1.733h.199c.123-.19.293-.431.511-.725.222-.298.54-.563.952-.795.416-.237.98-.355 1.69-.355.919 0 1.728.23 2.429.689.701.459 1.248 1.11 1.641 1.953s.589 1.837.589 2.983c0 1.155-.196 2.157-.589 3.004-.393.843-.938 1.496-1.634 1.96-.696.46-1.499.689-2.408.689-.7 0-1.261-.116-1.683-.348-.421-.236-.746-.504-.973-.802-.227-.303-.402-.554-.525-.753h-.142v5.767h-1.677Zm1.648-9.546c0 .824.121 1.551.362 2.181.242.625.595 1.115 1.059 1.47.464.35 1.032.526 1.704.526.701 0 1.286-.185 1.754-.554.474-.374.829-.876 1.066-1.506.241-.635.362-1.34.362-2.117 0-.767-.118-1.458-.355-2.073-.232-.621-.585-1.111-1.058-1.471-.469-.364-1.059-.546-1.769-.546-.682 0-1.255.172-1.719.518-.464.341-.814.819-1.051 1.435-.236.61-.355 1.323-.355 2.137Zm12.216-1.107V593h-1.676v-14.545h1.676v5.34h.142c.256-.563.639-1.01 1.151-1.342.516-.336 1.202-.504 2.059-.504.744 0 1.395.149 1.953.447.559.294.992.746 1.3 1.357.313.606.469 1.378.469 2.315V593h-1.676v-6.818c0-.867-.225-1.537-.675-2.01-.445-.478-1.063-.717-1.854-.717-.549 0-1.041.116-1.477.348-.431.232-.772.57-1.023 1.015-.246.445-.369.985-.369 1.62Z"></path>
    <circle cx="520" cy="136" r="10" fill="#85D67E"></circle>
    <path fill="#000"
        d="M542.761 145v-14.545h5.086c1.013 0 1.849.175 2.507.525.658.346 1.148.812 1.47 1.399.322.583.483 1.229.483 1.939 0 .625-.111 1.141-.334 1.548-.218.408-.507.73-.866.966-.356.237-.741.412-1.158.526v.142c.445.028.892.185 1.342.469.45.284.826.691 1.129 1.221.303.531.455 1.179.455 1.946 0 .73-.166 1.385-.497 1.968-.332.582-.855 1.044-1.57 1.385-.715.341-1.645.511-2.791.511h-5.256Zm1.762-1.562h3.494c1.151 0 1.967-.223 2.45-.668.488-.45.732-.994.732-1.634 0-.492-.126-.947-.377-1.363-.251-.422-.608-.758-1.072-1.009-.464-.255-1.013-.383-1.648-.383h-3.579v5.057Zm0-6.591h3.267c.53 0 1.008-.105 1.434-.313.431-.208.772-.502 1.023-.881.256-.378.384-.823.384-1.335 0-.639-.223-1.181-.668-1.626-.445-.45-1.15-.675-2.116-.675h-3.324v4.83Zm12.695-6.392V145h-1.676v-14.545h1.676Zm7.502 14.772c-.985 0-1.849-.234-2.593-.703-.738-.469-1.316-1.124-1.732-1.967-.412-.843-.618-1.828-.618-2.955 0-1.136.206-2.128.618-2.976.416-.847.994-1.505 1.732-1.974.744-.469 1.608-.703 2.593-.703.985 0 1.846.234 2.585.703.743.469 1.321 1.127 1.733 1.974.417.848.625 1.84.625 2.976 0 1.127-.208 2.112-.625 2.955-.412.843-.99 1.498-1.733 1.967-.739.469-1.6.703-2.585.703Zm0-1.505c.748 0 1.363-.192 1.846-.576.483-.383.841-.887 1.073-1.512.232-.625.348-1.303.348-2.032 0-.729-.116-1.408-.348-2.038-.232-.63-.59-1.139-1.073-1.527-.483-.388-1.098-.582-1.846-.582s-1.364.194-1.847.582c-.483.388-.84.897-1.072 1.527-.232.63-.348 1.309-.348 2.038 0 .729.116 1.407.348 2.032.232.625.589 1.129 1.072 1.512.483.384 1.099.576 1.847.576Zm11.933 1.505c-1.022 0-1.903-.241-2.642-.724-.738-.483-1.306-1.148-1.704-1.996-.398-.847-.597-1.816-.597-2.905 0-1.108.204-2.085.611-2.933.412-.852.985-1.517 1.719-1.996.738-.483 1.6-.724 2.585-.724.767 0 1.458.142 2.074.426.615.284 1.12.682 1.513 1.193.393.512.636 1.108.731 1.79h-1.676c-.128-.497-.412-.938-.852-1.321-.436-.388-1.023-.582-1.762-.582-.653 0-1.226.17-1.718.511-.488.336-.869.812-1.144 1.427-.27.611-.405 1.329-.405 2.152 0 .843.133 1.577.398 2.202.27.625.649 1.11 1.136 1.456.493.346 1.071.519 1.733.519.436 0 .831-.076 1.186-.228.356-.151.656-.369.902-.653.247-.284.422-.625.526-1.023h1.676c-.095.644-.329 1.224-.703 1.74-.369.512-.859.919-1.47 1.222-.606.298-1.312.447-2.117.447Zm8.303-4.204-.028-2.074h.34l4.773-4.858h2.074l-5.085 5.142h-.142l-1.932 1.79ZM583.393 145v-14.545h1.677V145h-1.677Zm6.932 0-4.261-5.398 1.193-1.164 5.199 6.562h-2.131Zm8.072.227c-1.051 0-1.958-.232-2.72-.696-.758-.469-1.342-1.122-1.754-1.96-.408-.843-.611-1.823-.611-2.94 0-1.118.203-2.103.611-2.955.412-.857.984-1.524 1.718-2.003.739-.483 1.601-.724 2.586-.724.568 0 1.129.095 1.683.284.554.189 1.058.497 1.513.923.454.422.816.98 1.086 1.676.27.696.405 1.553.405 2.571v.711h-8.409v-1.449h6.705c0-.616-.124-1.165-.37-1.648-.241-.483-.587-.864-1.037-1.143-.445-.28-.97-.419-1.576-.419-.668 0-1.246.165-1.733.497-.483.326-.855.753-1.115 1.278-.261.526-.391 1.089-.391 1.69v.966c0 .824.142 1.523.426 2.096.289.568.689 1.001 1.2 1.299.512.294 1.106.441 1.783.441.44 0 .838-.062 1.193-.185.36-.128.67-.317.931-.568.26-.256.461-.573.603-.952l1.62.455c-.171.549-.457 1.032-.86 1.448-.402.412-.899.734-1.491.966-.592.228-1.257.341-1.996.341Zm8.743-6.789V145h-1.676v-10.909h1.619v1.704h.142c.256-.554.644-.999 1.165-1.335.521-.341 1.193-.511 2.017-.511.739 0 1.385.151 1.939.454.554.299.985.753 1.292 1.364.308.606.462 1.373.462 2.301V145h-1.676v-6.818c0-.857-.223-1.525-.668-2.003-.445-.483-1.055-.724-1.832-.724-.535 0-1.013.116-1.435.348-.416.232-.745.57-.987 1.015-.241.445-.362.985-.362 1.62ZM617.39 145v-14.545h1.676v5.369h.142c.124-.19.294-.431.512-.725.222-.298.54-.563.952-.795.416-.237.98-.355 1.69-.355.918 0 1.728.23 2.429.689.701.459 1.247 1.11 1.64 1.953.393.843.59 1.837.59 2.983 0 1.155-.197 2.157-.59 3.004-.393.843-.937 1.496-1.633 1.96-.696.46-1.499.689-2.408.689-.7 0-1.262-.116-1.683-.348-.421-.236-.746-.504-.973-.802-.227-.303-.402-.554-.526-.753h-.198V145h-1.62Zm1.648-5.455c0 .824.121 1.551.362 2.181.242.625.594 1.115 1.058 1.47.464.35 1.033.526 1.705.526.701 0 1.286-.185 1.754-.554.474-.374.829-.876 1.066-1.506.241-.635.362-1.34.362-2.117 0-.767-.119-1.458-.355-2.073-.232-.621-.585-1.111-1.059-1.471-.468-.364-1.058-.546-1.768-.546-.682 0-1.255.172-1.719.518-.464.341-.814.819-1.051 1.435-.237.61-.355 1.323-.355 2.137Zm15.121 5.682c-1.051 0-1.958-.232-2.72-.696-.758-.469-1.343-1.122-1.755-1.96-.407-.843-.61-1.823-.61-2.94 0-1.118.203-2.103.61-2.955.412-.857.985-1.524 1.719-2.003.739-.483 1.6-.724 2.585-.724.568 0 1.13.095 1.684.284.553.189 1.058.497 1.512.923.455.422.817.98 1.087 1.676s.405 1.553.405 2.571v.711h-8.409v-1.449h6.704c0-.616-.123-1.165-.369-1.648-.242-.483-.587-.864-1.037-1.143-.445-.28-.971-.419-1.577-.419-.667 0-1.245.165-1.733.497-.483.326-.854.753-1.115 1.278-.26.526-.39 1.089-.39 1.69v.966c0 .824.142 1.523.426 2.096.289.568.689 1.001 1.2 1.299.511.294 1.106.441 1.783.441.44 0 .838-.062 1.193-.185.36-.128.67-.317.93-.568.261-.256.462-.573.604-.952l1.619.455c-.17.549-.457 1.032-.859 1.448-.403.412-.9.734-1.492.966-.591.228-1.257.341-1.995.341Zm7.066-.227v-10.909h1.62v1.648h.113c.199-.54.559-.978 1.08-1.314.521-.336 1.108-.505 1.761-.505.123 0 .277.003.462.008.185.004.324.011.419.021v1.704c-.057-.014-.187-.035-.391-.064-.198-.033-.409-.049-.632-.049-.53 0-1.003.111-1.42.334-.412.217-.739.52-.98.909-.237.383-.355.821-.355 1.314V145h-1.677Zm11.513 4.318c-.809 0-1.505-.104-2.088-.312-.582-.204-1.067-.474-1.456-.81-.383-.331-.689-.687-.916-1.065l1.335-.938c.152.199.344.426.576.682.232.26.549.485.951.675.407.194.94.291 1.598.291.881 0 1.608-.213 2.181-.639.573-.426.859-1.094.859-2.003v-2.216h-.142c-.123.199-.298.445-.526.739-.222.288-.544.546-.965.774-.417.222-.981.334-1.691.334-.88 0-1.671-.209-2.372-.625-.696-.417-1.248-1.023-1.655-1.819-.402-.795-.603-1.761-.603-2.897 0-1.118.196-2.091.589-2.919.393-.834.94-1.478 1.641-1.932.7-.459 1.51-.689 2.429-.689.71 0 1.273.118 1.69.355.421.232.743.497.966.795.227.294.402.535.525.725h.171v-1.733h1.619v11.221c0 .938-.213 1.7-.639 2.287-.421.592-.99 1.026-1.705 1.3-.71.28-1.501.419-2.372.419Zm-.057-5.994c.673 0 1.241-.154 1.705-.462.464-.308.817-.75 1.058-1.328.242-.578.362-1.269.362-2.074 0-.786-.118-1.479-.355-2.081-.236-.601-.587-1.072-1.051-1.413-.464-.341-1.037-.511-1.719-.511-.71 0-1.302.179-1.775.539-.469.36-.822.843-1.058 1.449-.232.606-.348 1.279-.348 2.017 0 .758.118 1.428.355 2.01.241.578.596 1.032 1.065 1.364.474.327 1.061.49 1.761.49Z"></path>
</svg>