<svg fill="none" viewBox="0 0 159 49" xmlns="http://www.w3.org/2000/svg">
  <g style="filter: drop-shadow(rgba(57, 146, 255, 0.9) 0px 0px 3px) drop-shadow(rgb(57, 146, 255) 0px 0px 3px);">
    <g clip-rule="evenodd">
      <path fill="#E8F2FF" fill-rule="evenodd" d="M35.891 34.2368c.3237 4.2304.3237 6.2135.3237 8.3782h-9.6186c0-.4715.0083-.9029.0167-1.3402.026-1.3597.0532-2.7775-.1633-5.6408-.2861-4.1918-2.06-5.1233-5.3216-5.1233H6v-7.6269h15.5857c4.1199 0 6.1799-1.2753 6.1799-4.6521 0-2.9692-2.06-4.7686-6.1799-4.7686H6V6h17.3023c9.3271 0 13.9621 4.483 13.9621 11.644 0 5.3563-3.2617 8.8495-7.6677 9.4317 3.7194.7568 5.8938 2.911 6.2943 7.1611Z" style=""></path>
      <path d="M35.891 34.2368c.3237 4.2304.3237 6.2135.3237 8.3782h-9.6186c0-.4715.0083-.9029.0167-1.3402.026-1.3597.0532-2.7775-.1633-5.6408-.2861-4.1918-2.06-5.1233-5.3216-5.1233H6v-7.6269h15.5857c4.1199 0 6.1799-1.2753 6.1799-4.6521 0-2.9692-2.06-4.7686-6.1799-4.7686H6V6h17.3023c9.3271 0 13.9621 4.483 13.9621 11.644 0 5.3563-3.2617 8.8495-7.6677 9.4317 3.7194.7568 5.8938 2.911 6.2943 7.1611Z" style=""></path>
    </g>
    <path fill="#E8F2FF" d="M6 42.615v-5.6856h10.1702c1.6988 0 2.0676 1.2822 2.0676 2.0468v3.6388H6Z" style="stroke: rgb(232, 242, 255);"></path>
  </g>
  <g style="filter: drop-shadow(rgba(107, 217, 104, 0.9) 0px 0px 3px) drop-shadow(rgb(107, 217, 104) 0px 0px 3px);">
    <path fill="#F1FFF0" d="M57.1598 32.775c-.8563 2.0328-2.4546 2.904-4.9663 2.904-2.7972 0-5.0806-1.5101-5.3089-4.7045H64.752v-2.6136c0-7.0278-4.5096-12.9521-13.0152-12.9521-7.9348 0-13.8716 5.8662-13.8716 14.0556 0 8.2475 5.8227 13.2424 13.9857 13.2424 6.736 0 11.4169-3.3106 12.7299-9.2348l-7.421-.697Zm-10.161-6.3308c.3425-2.4394 1.6554-4.298 4.6238-4.298 2.7401 0 4.2243 1.9748 4.3384 4.298h-8.9622Z" style=""></path>
  </g>
  <g style="filter: drop-shadow(rgba(254, 204, 27, 0.9) 0px 0px 3px) drop-shadow(rgb(254, 204, 27) 0px 0px 3px);">
    <path fill="#FFFAEA" d="M91.9067 21.3381c-1.0846-3.0202-3.425-5.1111-7.9347-5.1111-3.8247 0-6.5647 1.7424-7.9348 4.5884V16.924h-9.2476v25.904h9.2476V30.1083c0-3.8914 1.0846-6.447 4.1101-6.447 2.7972 0 3.4822 1.8586 3.4822 5.4016V42.828h9.2477V30.1083c0-3.8914 1.0275-6.447 4.1101-6.447 2.7971 0 3.4247 1.8586 3.4247 5.4016V42.828h9.248V26.5654c0-5.4015-2.055-10.3384-9.076-10.3384-4.2818 0-7.3072 2.2071-8.6773 5.1111Z" style=""></path>
  </g>
  <g style="filter: drop-shadow(rgba(216, 59, 210, 0.9) 0px 0px 3px) drop-shadow(rgb(216, 59, 210) 0px 0px 3px);">
    <path fill="#FFF7FF" d="M112.685 17.096V43h9.247V17.096h-9.247Zm-.057-2.4394h9.361V6.40909h-9.361v8.24751Z" style=""></path>
  </g>
  <g style="filter: drop-shadow(rgba(245, 51, 66, 0.9) 0px 0px 3px) drop-shadow(rgb(245, 51, 66) 0px 0px 3px);">
    <path fill="#FFF0F1" d="M151.954 17.0451h-9.533l-4.339 6.1566-4.224-6.1566H123.64l9.19 12.7197-9.989 13.1844h9.533l5.08-7.0278 5.081 7.0278h10.218l-10.047-13.5909 9.248-12.3132Z" style=""></path>
  </g>
  <g style="">
    <g clip-rule="evenodd">
      <path fill="#E8F2FF" fill-rule="evenodd" d="M35.891 34.2368c.3237 4.2304.3237 6.2135.3237 8.3782h-9.6186c0-.4715.0083-.9029.0167-1.3402.026-1.3597.0532-2.7775-.1633-5.6408-.2861-4.1918-2.06-5.1233-5.3216-5.1233H6v-7.6269h15.5857c4.1199 0 6.1799-1.2753 6.1799-4.6521 0-2.9692-2.06-4.7686-6.1799-4.7686H6V6h17.3023c9.3271 0 13.9621 4.483 13.9621 11.644 0 5.3563-3.2617 8.8495-7.6677 9.4317 3.7194.7568 5.8938 2.911 6.2943 7.1611Z" style=""></path>
      <path d="M35.891 34.2368c.3237 4.2304.3237 6.2135.3237 8.3782h-9.6186c0-.4715.0083-.9029.0167-1.3402.026-1.3597.0532-2.7775-.1633-5.6408-.2861-4.1918-2.06-5.1233-5.3216-5.1233H6v-7.6269h15.5857c4.1199 0 6.1799-1.2753 6.1799-4.6521 0-2.9692-2.06-4.7686-6.1799-4.7686H6V6h17.3023c9.3271 0 13.9621 4.483 13.9621 11.644 0 5.3563-3.2617 8.8495-7.6677 9.4317 3.7194.7568 5.8938 2.911 6.2943 7.1611Z" style=""></path>
    </g>
    <path fill="#E8F2FF" d="M6 42.615v-5.6856h10.1702c1.6988 0 2.0676 1.2822 2.0676 2.0468v3.6388H6Z" style="stroke: rgb(232, 242, 255);"></path>
  </g>
  <g style="">
    <path fill="#F1FFF0" d="M57.1598 32.775c-.8563 2.0328-2.4546 2.904-4.9663 2.904-2.7972 0-5.0806-1.5101-5.3089-4.7045H64.752v-2.6136c0-7.0278-4.5096-12.9521-13.0152-12.9521-7.9348 0-13.8716 5.8662-13.8716 14.0556 0 8.2475 5.8227 13.2424 13.9857 13.2424 6.736 0 11.4169-3.3106 12.7299-9.2348l-7.421-.697Zm-10.161-6.3308c.3425-2.4394 1.6554-4.298 4.6238-4.298 2.7401 0 4.2243 1.9748 4.3384 4.298h-8.9622Z" style=""></path>
  </g>
  <g style="">
    <path fill="#FFFAEA" d="M91.9067 21.3381c-1.0846-3.0202-3.425-5.1111-7.9347-5.1111-3.8247 0-6.5647 1.7424-7.9348 4.5884V16.924h-9.2476v25.904h9.2476V30.1083c0-3.8914 1.0846-6.447 4.1101-6.447 2.7972 0 3.4822 1.8586 3.4822 5.4016V42.828h9.2477V30.1083c0-3.8914 1.0275-6.447 4.1101-6.447 2.7971 0 3.4247 1.8586 3.4247 5.4016V42.828h9.248V26.5654c0-5.4015-2.055-10.3384-9.076-10.3384-4.2818 0-7.3072 2.2071-8.6773 5.1111Z" style=""></path>
  </g>
  <g style="">
    <path fill="#FFF7FF" d="M112.685 17.096V43h9.247V17.096h-9.247Zm-.057-2.4394h9.361V6.40909h-9.361v8.24751Z" style=""></path>
  </g>
  <g style="">
    <path fill="#FFF0F1" d="M151.954 17.0451h-9.533l-4.339 6.1566-4.224-6.1566H123.64l9.19 12.7197-9.989 13.1844h9.533l5.08-7.0278 5.081 7.0278h10.218l-10.047-13.5909 9.248-12.3132Z" style=""></path>
  </g>
</svg>